# xmcd
#
# Track frame offsets:
#	150
#	9512
#	154101
#	212284
#	284019
#
# Disc length: 4014 seconds
#
# Revision: 1
# Processed by: cddbd v1.5.2PL0 Copyright (c) Steve Scherf et al.
# Submitted via: audiograbber 1.83.01
#
DISCID=3b0fac05
DTITLE=Grateful Dead - 73-03-21 Springfield Civic Centre Arena, Spingfield MA
DYEAR=1900
DGENRE=
TTITLE0=WRS Prelude
TTITLE1=Dark Star
TTITLE2=Eyes Of The World
TTITLE3=Playing In The Band
TTITLE4=Johnny B Goode
EXTD=
EXTT0=
EXTT1=
EXTT2=
EXTT3=
EXTT4=
PLAYORDER=
